<?xml version="1.0" encoding="utf-8"?>
<svg xmlns="http://www.w3.org/2000/svg" viewBox="100 100 800 800" width="800px" height="800px">
  <defs>
    <filter x="-27.4%" y="-30%" width="154.9%" height="160%" filterUnits="objectBoundingBox" id="b">
      <feOffset dy="10" in="SourceAlpha" result="shadowOffsetOuter1"/>
      <feGaussianBlur stdDeviation="20" in="shadowOffsetOuter1" result="shadowBlurOuter1"/>
      <feColorMatrix values="0 0 0 0 0 0 0 0 0 0 0 0 0 0 0 0 0 0 0.3 0" in="shadowBlurOuter1" result="shadowMatrixOuter1"/>
      <feMerge>
        <feMergeNode in="shadowMatrixOuter1"/>
        <feMergeNode in="SourceGraphic"/>
      </feMerge>
    </filter>
  </defs>
  <ellipse style="" cx="500" cy="500" rx="400" ry="400" id="object-0" transform="matrix(0.9999999999999999, 0, 0, 0.9999999999999999, 0, 0)"/>
  <a transform="matrix(0.9999999999999999, 0, 0, 0.9999999999999999, -0.4952090084552765, 2.200347900390625)" id="object-1">
    <g fill="none" fill-rule="evenodd" transform="matrix(1.711735, 0, 0, 1.711735, 61.290958, 60.596264)" style="">
      <g filter="url(#b)" transform="matrix(1, 0, 0, 1, 81.584206, 95.415794)" fill="#FFF">
        <path d="M168.36 42.893c-2.28 7.534 6.84-2.79 4.446-7.674s6.853 4.22 5.075 10.014c-1.777 5.795 7.18-1.669 5.73-5.841-1.448-4.169 6.85 3.508 4.47 8.379h7.527c16.504 0 51.847 6.879 69.868 50.817a15.596 15.596 0 0 0-.64 9.964l20.592 77.336c2.211 8.308 10.74 13.25 19.047 11.038l.048-.013.13-.037c5.637 18.507 5.895 35.987.166 51.18-21.062 56.053-107.22 71.511-130.377 71.93-40.393.683-113.35-25.219-130.377-71.93-5.564-15.341-5.366-32.85.286-51.434a16.108 16.108 0 0 0 1.007.304c8.204 2.184 16.622-2.608 18.962-10.728l.085-.31 20.591-77.336a15.607 15.607 0 0 0-1.127-11.039c17.996-42.512 52.34-49.592 68.923-49.74l.536-.002 5.21-.001.22-.398c3.882-7.097 4.824-12.107 2.827-15.029-3.054-4.466 9.056 3.016 6.775 10.55Zm5.842 139.044c-10.438-.058-38.46 19.189-42.696 25.752-4.871 7.548-4.871 19.785 0 27.332 1.862 2.884 12.746 3.393 19.798 11.268 10.675 11.922 19.391 30.683 22.93 29.201 3.535 1.483 12.246-17.287 22.914-29.214 7.048-7.88 17.926-8.388 19.787-11.274 4.868-7.55 4.868-19.793 0-27.344-4.237-6.57-32.308-25.811-42.733-25.721Zm67.388-60.715c-16.428 0-20.974 12.57-20.974 29.181 0 16.613 4.546 30.835 20.974 30.835s25.521-14.222 25.521-30.835c0-16.612-9.093-29.18-25.521-29.18Zm-130.467 0c-16.428 0-25.522 12.57-25.522 29.181 0 16.613 9.094 30.835 25.522 30.835 16.427 0 20.973-14.222 20.973-30.835 0-16.612-4.546-29.18-20.973-29.18Z" style="stroke: rgb(187, 153, 255); stroke-width: 5.842026px; fill: rgb(0, 0, 0);"/>
        <path d="M174.904 0c44.598 0 86.522 17.264 118.045 47.613 3.685 3.548 5.01 8.626 3.937 13.273a163.912 163.912 0 0 1 26.102 38.961c12.108 5.279 21.792 15.86 25.474 29.667 6.405 24.02-7.78 48.71-31.686 55.146-23.904 6.436-47.1-80.549-23.195-86.985a44.707 44.707 0 0 1 10.83-1.538 149.28 149.28 0 0 0-17.909-24.788 13.986 13.986 0 0 1-12.98-3.53c-26.356-25.372-61.34-39.779-98.618-39.779-37.745 0-73.126 14.774-99.559 40.694l-.798.79a13.993 13.993 0 0 1-12.76 3.785 148.934 148.934 0 0 0-16.2 22.828c3.584.064 7.216.565 10.832 1.538 23.905 6.436.71 93.421-23.195 86.985-23.905-6.436-38.091-31.126-31.686-55.146 3.682-13.807 13.365-24.387 25.474-29.666A163.845 163.845 0 0 1 51.11 63.152c-1.222-4.67.002-9.85 3.67-13.503C86.494 18.062 129.291 0 174.904 0Z" style="stroke: rgb(187, 153, 255); stroke-width: 5.842026px; fill: rgb(0, 0, 0);"/>
        <path d="M115.727 155.455a7.273 7.273 0 1 1 0 14.545 7.273 7.273 0 0 1 0-14.545Zm-9.09-5.455a3.636 3.636 0 1 1 0 7.273 3.636 3.636 0 0 1 0-7.273ZM251.727 155.455a7.273 7.273 0 1 1 0 14.545 7.273 7.273 0 0 1 0-14.545Zm-9.09-5.455a3.636 3.636 0 1 1 0 7.273 3.636 3.636 0 0 1 0-7.273Z" style="stroke: rgb(187, 153, 255); stroke-width: 5.842026px; fill: rgb(0, 0, 0);"/>
      </g>
    </g>
  </a>
  <path d="M 747.703 463.209 C 743.45 463.332 740.138 466.911 740.23 471.157 C 740.322 475.375 743.751 478.63 747.938 478.63 L 748.177 478.63 C 749.174 478.507 776.253 478.507 804.075 507.057 C 832.086 535.761 832.753 563.202 832.753 563.441 C 832.753 567.689 836.181 571.151 840.46 571.151 C 844.743 571.151 848.172 567.689 848.172 563.441 C 848.172 562.084 847.806 529.949 815.165 496.454 C 782.307 462.785 749.204 463.116 747.703 463.209 Z M 747.938 509.47 C 743.72 509.47 740.292 512.963 740.23 517.179 C 740.169 521.399 743.72 524.798 747.938 524.89 C 748.446 524.89 760.498 525.399 773.236 538.144 C 785.98 550.881 786.488 563.017 786.488 563.441 C 786.488 567.689 789.922 571.151 794.201 571.151 C 798.48 571.151 801.908 567.689 801.908 563.441 C 801.908 562.685 801.786 544.528 784.321 527.057 C 766.851 509.594 748.695 509.47 747.938 509.47 Z M 684.093 509.709 C 675.812 509.678 667.284 512.57 660.722 518.622 L 471.824 708.247 C 459.533 720.536 459.441 740.651 471.824 754.031 L 558.317 840.28 C 564.253 846.217 572.141 849.442 580.729 849.442 C 589.188 849.442 597.352 846.283 603.861 840.28 L 792.995 650.905 C 804.773 637.142 804.773 617.142 792.756 605.123 L 706.257 518.622 C 700.351 512.725 692.374 509.739 684.093 509.709 Z M 678.548 578.862 C 708.364 578.862 732.518 603.017 732.518 632.832 C 732.518 662.647 708.364 686.803 678.548 686.803 C 648.735 686.803 624.577 662.647 624.577 632.832 C 624.577 603.017 648.735 578.862 678.548 578.862 Z M 678.548 617.413 C 670.027 617.413 663.127 624.305 663.127 632.832 C 663.127 641.352 670.027 648.254 678.548 648.254 C 687.068 648.254 693.967 641.352 693.967 632.832 C 693.967 624.305 687.068 617.413 678.548 617.413 Z M 578.316 671.384 C 586.836 671.384 593.737 678.277 593.737 686.803 C 593.737 695.324 586.836 702.224 578.316 702.224 C 569.796 702.224 562.896 695.324 562.896 686.803 C 562.896 678.277 569.796 671.384 578.316 671.384 Z M 539.766 709.933 C 548.286 709.933 555.186 716.828 555.186 725.353 C 555.186 733.875 548.286 740.773 539.766 740.773 C 531.246 740.773 524.346 733.875 524.346 725.353 C 524.346 716.828 531.246 709.933 539.766 709.933 Z M 624.577 717.646 C 633.097 717.646 639.997 724.535 639.997 733.066 C 639.997 741.587 633.097 748.485 624.577 748.485 C 616.058 748.485 609.157 741.587 609.157 733.066 C 609.157 724.535 616.058 717.646 624.577 717.646 Z M 586.025 756.192 C 594.546 756.192 601.446 763.086 601.446 771.617 C 601.446 780.133 594.546 787.036 586.025 787.036 C 577.507 787.036 570.606 780.133 570.606 771.617 C 570.606 763.086 577.507 756.192 586.025 756.192 Z" style="paint-order: fill; stroke: rgb(221, 255, 153); stroke-width: 10px;" id="object-2" transform="matrix(0.9999999999999999, 0, 0, 0.9999999999999999, 0, 0)"/>
</svg>