<?xml version="1.0" encoding="utf-8"?>
<svg viewBox="0 0 700 700" xmlns="http://www.w3.org/2000/svg">
  <defs>
    <filter x="-27.4%" y="-30%" width="154.9%" height="160%" filterUnits="objectBoundingBox" id="b">
      <feOffset dy="10" in="SourceAlpha" result="shadowOffsetOuter1"/>
      <feGaussianBlur stdDeviation="20" in="shadowOffsetOuter1" result="shadowBlurOuter1"/>
      <feColorMatrix values="0 0 0 0 0 0 0 0 0 0 0 0 0 0 0 0 0 0 0.3 0" in="shadowBlurOuter1" result="shadowMatrixOuter1"/>
      <feMerge>
        <feMergeNode in="shadowMatrixOuter1"/>
        <feMergeNode in="SourceGraphic"/>
      </feMerge>
    </filter>
    <path d="M12.289 116.744 197.226 7.543a25 25 0 0 1 25.515.054l184.063 109.754A25 25 0 0 1 419 138.824V351.88a25 25 0 0 1-12.092 21.41L222.877 484.237a25 25 0 0 1-25.77.027L12.137 373.283A25 25 0 0 1 0 351.845V138.271a25 25 0 0 1 12.289-21.527Z" id="a"/>
  </defs>
  <g transform="matrix(1, 0, 0, 1, -174.309235, -187.782593)">
    <a transform="matrix(1, 0, 0, 1, -0.495209, 2.200348)" id="object-1">
      <g fill="none" fill-rule="evenodd" transform="matrix(1.711735, 0, 0, 1.711735, 61.290958, 60.596264)" style="">
        <g filter="url(#b)" transform="matrix(1, 0, 0, 1, 81.584206, 95.415794)" fill="#FFF">
          <path d="M 168.36 42.893 C 166.08 50.427 175.2 40.103 172.806 35.219 C 170.412 30.335 179.659 39.439 177.881 45.233 C 176.104 51.028 185.061 43.564 183.611 39.392 C 182.163 35.223 190.461 42.9 188.081 47.771 L 195.608 47.771 C 212.112 47.771 247.455 54.65 265.476 98.588 C 264.177 101.749 263.952 105.25 264.836 108.552 L 285.428 185.888 C 287.639 194.196 296.168 199.138 304.475 196.926 L 304.523 196.913 L 304.653 196.876 C 310.29 215.383 330.029 228.804 324.3 243.997 C 310.575 280.524 264.182 324.938 224.855 335.26 C 203.832 340.779 182.509 319.84 174.442 319.986 C 134.049 320.669 61.092 294.767 44.065 248.056 C 38.501 232.715 38.699 215.206 44.351 196.622 C 44.683 196.734 45.019 196.836 45.358 196.926 C 53.562 199.11 61.98 194.318 64.32 186.198 L 64.405 185.888 L 84.996 108.552 C 85.985 104.859 85.584 100.93 83.869 97.513 C 101.865 55.001 136.209 47.921 152.792 47.773 L 153.328 47.771 L 158.538 47.77 L 158.758 47.372 C 162.64 40.275 163.582 35.265 161.585 32.343 C 158.531 27.877 170.641 35.359 168.36 42.893 Z M 174.202 181.937 C 163.764 181.879 135.742 201.126 131.506 207.689 C 126.635 215.237 126.635 227.474 131.506 235.021 C 133.368 237.905 144.252 238.414 151.304 246.289 C 161.979 258.211 170.695 276.972 174.234 275.49 C 177.769 276.973 186.48 258.203 197.148 246.276 C 204.196 238.396 215.074 237.888 216.935 235.002 C 221.803 227.452 221.803 215.209 216.935 207.658 C 212.698 201.088 184.627 181.847 174.202 181.937 Z M 241.59 121.222 C 225.162 121.222 220.616 133.792 220.616 150.403 C 220.616 167.016 225.162 181.238 241.59 181.238 C 258.018 181.238 267.111 167.016 267.111 150.403 C 267.111 133.791 258.018 121.223 241.59 121.223 L 241.59 121.222 Z M 111.123 121.222 C 94.695 121.222 85.601 133.792 85.601 150.403 C 85.601 167.016 94.695 181.238 111.123 181.238 C 127.55 181.238 132.096 167.016 132.096 150.403 C 132.096 133.791 127.55 121.223 111.123 121.223 L 111.123 121.222 Z" style="fill: none; stroke: rgb(0, 0, 0); stroke-width: 5.842026px;"/>
          <path d="M174.904 0c44.598 0 86.522 17.264 118.045 47.613 3.685 3.548 5.01 8.626 3.937 13.273a163.912 163.912 0 0 1 26.102 38.961c12.108 5.279 21.792 15.86 25.474 29.667 6.405 24.02-7.78 48.71-31.686 55.146-23.904 6.436-47.1-80.549-23.195-86.985a44.707 44.707 0 0 1 10.83-1.538 149.28 149.28 0 0 0-17.909-24.788 13.986 13.986 0 0 1-12.98-3.53c-26.356-25.372-61.34-39.779-98.618-39.779-37.745 0-73.126 14.774-99.559 40.694l-.798.79a13.993 13.993 0 0 1-12.76 3.785 148.934 148.934 0 0 0-16.2 22.828c3.584.064 7.216.565 10.832 1.538 23.905 6.436.71 93.421-23.195 86.985-23.905-6.436-38.091-31.126-31.686-55.146 3.682-13.807 13.365-24.387 25.474-29.666A163.845 163.845 0 0 1 51.11 63.152c-1.222-4.67.002-9.85 3.67-13.503C86.494 18.062 129.291 0 174.904 0Z" style="fill: none; stroke-width: 5.842026px; stroke: rgb(0, 0, 0);"/>
          <path d="M115.727 155.455a7.273 7.273 0 1 1 0 14.545 7.273 7.273 0 0 1 0-14.545Zm-9.09-5.455a3.636 3.636 0 1 1 0 7.273 3.636 3.636 0 0 1 0-7.273ZM251.727 155.455a7.273 7.273 0 1 1 0 14.545 7.273 7.273 0 0 1 0-14.545Zm-9.09-5.455a3.636 3.636 0 1 1 0 7.273 3.636 3.636 0 0 1 0-7.273Z" style="stroke-width: 5.842026px; fill: rgb(0, 0, 0);"/>
        </g>
      </g>
    </a>
    <path d="M 747.703 463.209 C 743.45 463.332 740.138 466.911 740.23 471.157 C 740.322 475.375 743.751 478.63 747.938 478.63 L 748.177 478.63 C 749.174 478.507 776.253 478.507 804.075 507.057 C 832.086 535.761 832.753 563.202 832.753 563.441 C 832.753 567.689 836.181 571.151 840.46 571.151 C 844.743 571.151 848.172 567.689 848.172 563.441 C 848.172 562.084 847.806 529.949 815.165 496.454 C 782.307 462.785 749.204 463.116 747.703 463.209 Z M 747.938 509.47 C 743.72 509.47 740.292 512.963 740.23 517.179 C 740.169 521.399 743.72 524.798 747.938 524.89 C 748.446 524.89 760.498 525.399 773.236 538.144 C 785.98 550.881 786.488 563.017 786.488 563.441 C 786.488 567.689 789.922 571.151 794.201 571.151 C 798.48 571.151 801.908 567.689 801.908 563.441 C 801.908 562.685 801.786 544.528 784.321 527.057 C 766.851 509.594 748.695 509.47 747.938 509.47 Z M 684.093 509.709 C 675.812 509.678 667.284 512.57 660.722 518.622 L 471.824 708.247 C 459.533 720.536 459.441 740.651 471.824 754.031 L 558.317 840.28 C 564.253 846.217 572.141 849.442 580.729 849.442 C 589.188 849.442 597.352 846.283 603.861 840.28 L 792.995 650.905 C 804.773 637.142 804.773 617.142 792.756 605.123 L 706.257 518.622 C 700.351 512.725 692.374 509.739 684.093 509.709 Z M 678.548 578.862 C 708.364 578.862 732.518 603.017 732.518 632.832 C 732.518 662.647 708.364 686.803 678.548 686.803 C 648.735 686.803 624.577 662.647 624.577 632.832 C 624.577 603.017 648.735 578.862 678.548 578.862 Z M 678.548 617.413 C 670.027 617.413 663.127 624.305 663.127 632.832 C 663.127 641.352 670.027 648.254 678.548 648.254 C 687.068 648.254 693.967 641.352 693.967 632.832 C 693.967 624.305 687.068 617.413 678.548 617.413 Z M 578.316 671.384 C 586.836 671.384 593.737 678.277 593.737 686.803 C 593.737 695.324 586.836 702.224 578.316 702.224 C 569.796 702.224 562.896 695.324 562.896 686.803 C 562.896 678.277 569.796 671.384 578.316 671.384 Z M 539.766 709.933 C 548.286 709.933 555.186 716.828 555.186 725.353 C 555.186 733.875 548.286 740.773 539.766 740.773 C 531.246 740.773 524.346 733.875 524.346 725.353 C 524.346 716.828 531.246 709.933 539.766 709.933 Z M 624.577 717.646 C 633.097 717.646 639.997 724.535 639.997 733.066 C 639.997 741.587 633.097 748.485 624.577 748.485 C 616.058 748.485 609.157 741.587 609.157 733.066 C 609.157 724.535 616.058 717.646 624.577 717.646 Z M 586.025 756.192 C 594.546 756.192 601.446 763.086 601.446 771.617 C 601.446 780.133 594.546 787.036 586.025 787.036 C 577.507 787.036 570.606 780.133 570.606 771.617 C 570.606 763.086 577.507 756.192 586.025 756.192 Z" style="paint-order: fill; stroke-width: 10px;" id="object-2"/>
  </g>
</svg>